<svg xmlns="http://www.w3.org/2000/svg" xmlns:xlink="http://www.w3.org/1999/xlink" width="100" zoomAndPan="magnify" viewBox="0 0 75 74.999997" height="100" preserveAspectRatio="xMidYMid meet" version="1.0"><defs><clipPath id="5fede342a6"><path d="M 0.75 0.75 L 74.25 0.75 L 74.25 74.25 L 0.75 74.25 Z M 0.75 0.75 " clip-rule="nonzero"/></clipPath></defs><path fill="#051e0e" d="M 72.488281 37.5 C 72.488281 56.816406 56.816406 72.488281 37.5 72.488281 C 18.183594 72.488281 2.511719 56.816406 2.511719 37.5 C 2.511719 18.183594 18.183594 2.511719 37.5 2.511719 C 56.816406 2.511719 72.488281 18.183594 72.488281 37.5 Z M 72.488281 37.5 " fill-opacity="1" fill-rule="nonzero"/><g clip-path="url(#5fede342a6)"><path fill="#3070af" d="M 50.191406 49.027344 L 47.265625 49.027344 L 47.265625 28.5625 L 50.191406 28.5625 C 50.648438 28.5625 51.019531 28.933594 51.019531 29.390625 L 51.019531 48.214844 C 51 48.65625 50.632812 49.027344 50.191406 49.027344 Z M 57.503906 42.03125 L 57.503906 35.597656 C 57.503906 35.136719 57.136719 34.769531 56.675781 34.769531 L 55.621094 34.769531 L 55.621094 42.839844 L 56.675781 42.839844 C 57.136719 42.839844 57.503906 42.46875 57.503906 42.03125 Z M 26.308594 36.757812 L 26.308594 40.496094 L 46.402344 40.496094 L 46.402344 36.757812 Z M 54.773438 45.289062 L 54.773438 32.230469 C 54.773438 31.773438 54.402344 31.402344 53.945312 31.402344 L 51.863281 31.402344 L 51.863281 46.101562 L 53.960938 46.101562 C 54.421875 46.101562 54.773438 45.730469 54.773438 45.289062 Z M 22.519531 48.921875 L 25.445312 48.921875 L 25.445312 28.457031 L 22.519531 28.457031 C 22.058594 28.457031 21.691406 28.828125 21.691406 29.285156 L 21.691406 48.109375 C 21.707031 48.550781 22.078125 48.921875 22.519531 48.921875 Z M 16.03125 42.734375 L 17.089844 42.734375 L 17.089844 34.664062 L 16.03125 34.664062 C 15.574219 34.664062 15.203125 35.03125 15.203125 35.492188 L 15.203125 41.925781 C 15.203125 42.363281 15.574219 42.734375 16.03125 42.734375 Z M 18.746094 45.996094 L 20.84375 45.996094 L 20.84375 31.296875 L 18.746094 31.296875 C 18.289062 31.296875 17.917969 31.664062 17.917969 32.125 L 17.917969 45.167969 C 17.933594 45.625 18.289062 45.996094 18.746094 45.996094 Z M 74.25 37.5 C 74.25 17.230469 57.769531 0.75 37.5 0.75 C 17.230469 0.75 0.75 17.230469 0.75 37.5 C 0.75 57.769531 17.230469 74.25 37.5 74.25 C 57.769531 74.25 74.25 57.769531 74.25 37.5 Z M 70.726562 37.5 C 70.726562 55.8125 55.8125 70.726562 37.5 70.726562 C 19.1875 70.726562 4.273438 55.8125 4.273438 37.5 C 4.273438 19.1875 19.1875 4.273438 37.5 4.273438 C 55.8125 4.273438 70.726562 19.1875 70.726562 37.5 Z M 70.726562 37.5 " fill-opacity="1" fill-rule="nonzero"/></g></svg>