<svg xmlns="http://www.w3.org/2000/svg" xmlns:xlink="http://www.w3.org/1999/xlink" width="100" zoomAndPan="magnify" viewBox="0 0 75 74.999997" height="100" preserveAspectRatio="xMidYMid meet" version="1.0"><defs><clipPath id="89dbd8d4ba"><path d="M 0 3.300781 L 74.863281 3.300781 L 74.863281 68.550781 L 0 68.550781 Z M 0 3.300781 " clip-rule="nonzero"/></clipPath></defs><g clip-path="url(#89dbd8d4ba)"><path fill="#3070af" d="M 9.011719 68.550781 C 7.597656 68.550781 6.222656 68.320312 4.925781 67.875 L 1.972656 66.855469 L 4.242188 64.714844 C 7.246094 61.878906 8.003906 58.609375 8.050781 56.160156 C 2.863281 50.421875 0.0117188 43.265625 0.0117188 35.925781 C 0.0117188 17.9375 16.746094 3.300781 37.316406 3.300781 C 57.886719 3.300781 74.625 17.9375 74.625 35.925781 C 74.625 53.914062 57.886719 68.546875 37.316406 68.546875 C 31.191406 68.546875 25.152344 67.226562 19.769531 64.710938 C 17.738281 66.144531 13.636719 68.550781 9.011719 68.550781 Z M 19.324219 60.269531 L 20.414062 60.820312 C 25.53125 63.398438 31.378906 64.765625 37.316406 64.765625 C 55.796875 64.765625 70.828125 51.828125 70.828125 35.925781 C 70.828125 20.019531 55.796875 7.082031 37.316406 7.082031 C 18.839844 7.082031 3.804688 20.019531 3.804688 35.925781 C 3.804688 42.535156 6.476562 48.996094 11.324219 54.117188 L 11.816406 54.640625 L 11.839844 55.355469 C 11.921875 57.925781 11.460938 61.414062 9.167969 64.765625 C 13.558594 64.695312 17.597656 61.648438 18.371094 61.03125 Z M 19.324219 60.269531 " fill-opacity="1" fill-rule="nonzero"/></g><path fill="#3070af" d="M 57.578125 35.925781 C 57.578125 36.1875 57.550781 36.445312 57.5 36.699219 C 57.449219 36.957031 57.375 37.207031 57.273438 37.445312 C 57.175781 37.6875 57.050781 37.917969 56.90625 38.132812 C 56.761719 38.351562 56.59375 38.554688 56.410156 38.738281 C 56.222656 38.921875 56.023438 39.085938 55.804688 39.230469 C 55.585938 39.378906 55.359375 39.5 55.117188 39.601562 C 54.875 39.699219 54.625 39.773438 54.367188 39.824219 C 54.109375 39.875 53.851562 39.902344 53.589844 39.902344 C 53.328125 39.902344 53.066406 39.875 52.8125 39.824219 C 52.554688 39.773438 52.304688 39.699219 52.0625 39.601562 C 51.820312 39.5 51.589844 39.378906 51.371094 39.230469 C 51.15625 39.085938 50.953125 38.921875 50.769531 38.738281 C 50.582031 38.554688 50.417969 38.351562 50.273438 38.132812 C 50.125 37.917969 50.003906 37.6875 49.902344 37.445312 C 49.804688 37.207031 49.726562 36.957031 49.675781 36.699219 C 49.625 36.445312 49.601562 36.1875 49.601562 35.925781 C 49.601562 35.664062 49.625 35.40625 49.675781 35.148438 C 49.726562 34.894531 49.804688 34.644531 49.902344 34.402344 C 50.003906 34.160156 50.125 33.933594 50.273438 33.714844 C 50.417969 33.5 50.582031 33.296875 50.769531 33.113281 C 50.953125 32.929688 51.15625 32.761719 51.371094 32.617188 C 51.589844 32.472656 51.820312 32.351562 52.0625 32.25 C 52.304688 32.152344 52.554688 32.074219 52.8125 32.023438 C 53.066406 31.972656 53.328125 31.949219 53.589844 31.949219 C 53.851562 31.949219 54.109375 31.972656 54.367188 32.023438 C 54.625 32.074219 54.875 32.152344 55.117188 32.25 C 55.359375 32.351562 55.585938 32.472656 55.804688 32.617188 C 56.023438 32.761719 56.222656 32.929688 56.410156 33.113281 C 56.59375 33.296875 56.761719 33.5 56.90625 33.714844 C 57.050781 33.933594 57.175781 34.160156 57.273438 34.402344 C 57.375 34.644531 57.449219 34.894531 57.5 35.148438 C 57.550781 35.40625 57.578125 35.664062 57.578125 35.925781 Z M 57.578125 35.925781 " fill-opacity="1" fill-rule="nonzero"/><path fill="#3070af" d="M 41.308594 35.925781 C 41.308594 36.1875 41.28125 36.445312 41.230469 36.699219 C 41.179688 36.957031 41.105469 37.207031 41.003906 37.445312 C 40.90625 37.6875 40.78125 37.917969 40.636719 38.132812 C 40.492188 38.351562 40.324219 38.554688 40.140625 38.738281 C 39.957031 38.921875 39.753906 39.085938 39.535156 39.230469 C 39.316406 39.378906 39.089844 39.5 38.847656 39.601562 C 38.605469 39.699219 38.355469 39.773438 38.097656 39.824219 C 37.839844 39.875 37.582031 39.902344 37.320312 39.902344 C 37.058594 39.902344 36.796875 39.875 36.542969 39.824219 C 36.285156 39.773438 36.035156 39.699219 35.792969 39.601562 C 35.550781 39.5 35.320312 39.378906 35.101562 39.230469 C 34.886719 39.085938 34.683594 38.921875 34.5 38.738281 C 34.3125 38.554688 34.148438 38.351562 34.003906 38.132812 C 33.855469 37.917969 33.734375 37.6875 33.632812 37.445312 C 33.535156 37.207031 33.457031 36.957031 33.40625 36.699219 C 33.355469 36.445312 33.332031 36.1875 33.332031 35.925781 C 33.332031 35.664062 33.355469 35.40625 33.40625 35.148438 C 33.457031 34.894531 33.535156 34.644531 33.632812 34.402344 C 33.734375 34.160156 33.855469 33.933594 34.003906 33.714844 C 34.148438 33.5 34.3125 33.296875 34.5 33.113281 C 34.683594 32.929688 34.886719 32.761719 35.101562 32.617188 C 35.320312 32.472656 35.550781 32.351562 35.792969 32.25 C 36.035156 32.152344 36.285156 32.074219 36.542969 32.023438 C 36.796875 31.972656 37.058594 31.949219 37.320312 31.949219 C 37.582031 31.949219 37.839844 31.972656 38.097656 32.023438 C 38.355469 32.074219 38.605469 32.152344 38.847656 32.25 C 39.089844 32.351562 39.316406 32.472656 39.535156 32.617188 C 39.753906 32.761719 39.957031 32.929688 40.140625 33.113281 C 40.324219 33.296875 40.492188 33.5 40.636719 33.714844 C 40.78125 33.933594 40.90625 34.160156 41.003906 34.402344 C 41.105469 34.644531 41.179688 34.894531 41.230469 35.148438 C 41.28125 35.40625 41.308594 35.664062 41.308594 35.925781 Z M 41.308594 35.925781 " fill-opacity="1" fill-rule="nonzero"/><path fill="#3070af" d="M 25.035156 35.925781 C 25.035156 36.1875 25.011719 36.445312 24.957031 36.699219 C 24.90625 36.957031 24.832031 37.207031 24.730469 37.445312 C 24.632812 37.6875 24.507812 37.917969 24.363281 38.132812 C 24.21875 38.351562 24.050781 38.554688 23.867188 38.738281 C 23.683594 38.921875 23.480469 39.085938 23.261719 39.230469 C 23.042969 39.378906 22.816406 39.5 22.574219 39.601562 C 22.332031 39.699219 22.082031 39.773438 21.824219 39.824219 C 21.566406 39.875 21.308594 39.902344 21.046875 39.902344 C 20.785156 39.902344 20.523438 39.875 20.269531 39.824219 C 20.011719 39.773438 19.761719 39.699219 19.519531 39.601562 C 19.277344 39.5 19.046875 39.378906 18.828125 39.230469 C 18.613281 39.085938 18.410156 38.921875 18.226562 38.738281 C 18.039062 38.554688 17.875 38.351562 17.730469 38.132812 C 17.582031 37.917969 17.460938 37.6875 17.359375 37.445312 C 17.261719 37.207031 17.183594 36.957031 17.132812 36.699219 C 17.082031 36.445312 17.058594 36.1875 17.058594 35.925781 C 17.058594 35.664062 17.082031 35.40625 17.132812 35.148438 C 17.183594 34.894531 17.261719 34.644531 17.359375 34.402344 C 17.460938 34.160156 17.582031 33.933594 17.730469 33.714844 C 17.875 33.5 18.039062 33.296875 18.226562 33.113281 C 18.410156 32.929688 18.613281 32.761719 18.828125 32.617188 C 19.046875 32.472656 19.277344 32.351562 19.519531 32.25 C 19.761719 32.152344 20.011719 32.074219 20.269531 32.023438 C 20.523438 31.972656 20.785156 31.949219 21.046875 31.949219 C 21.308594 31.949219 21.566406 31.972656 21.824219 32.023438 C 22.082031 32.074219 22.332031 32.152344 22.574219 32.25 C 22.816406 32.351562 23.042969 32.472656 23.261719 32.617188 C 23.480469 32.761719 23.683594 32.929688 23.867188 33.113281 C 24.050781 33.296875 24.21875 33.5 24.363281 33.714844 C 24.507812 33.933594 24.632812 34.160156 24.730469 34.402344 C 24.832031 34.644531 24.90625 34.894531 24.957031 35.148438 C 25.011719 35.40625 25.035156 35.664062 25.035156 35.925781 Z M 25.035156 35.925781 " fill-opacity="1" fill-rule="nonzero"/></svg>