<svg xmlns="http://www.w3.org/2000/svg" xmlns:xlink="http://www.w3.org/1999/xlink" width="100" zoomAndPan="magnify" viewBox="0 0 75 74.999997" height="100" preserveAspectRatio="xMidYMid meet" version="1.0"><defs><clipPath id="405d92dbdb"><path d="M 10 0 L 66.855469 0 L 66.855469 74 L 10 74 Z M 10 0 " clip-rule="nonzero"/></clipPath></defs><g clip-path="url(#405d92dbdb)"><path fill="#f7922d" d="M 64.78125 46.347656 C 64.777344 46.847656 64.757812 47.386719 64.714844 47.960938 C 64.671875 48.53125 64.625 49.136719 64.539062 49.757812 C 64.460938 50.378906 64.347656 51.015625 64.222656 51.664062 C 64.089844 52.308594 63.9375 52.960938 63.757812 53.609375 C 63.664062 53.929688 63.570312 54.253906 63.464844 54.570312 C 63.371094 54.890625 63.257812 55.203125 63.144531 55.515625 C 62.917969 56.136719 62.664062 56.738281 62.402344 57.3125 C 62.136719 57.882812 61.847656 58.421875 61.558594 58.921875 C 61.273438 59.425781 60.980469 59.886719 60.683594 60.292969 C 60.40625 60.714844 60.105469 61.070312 59.855469 61.386719 C 59.589844 61.699219 59.347656 61.960938 59.148438 62.175781 C 58.734375 62.585938 58.488281 62.8125 58.488281 62.8125 C 58.488281 62.8125 58.660156 62.523438 58.976562 62.042969 C 59.125 61.796875 59.304688 61.496094 59.511719 61.148438 C 59.703125 60.796875 59.929688 60.410156 60.148438 59.972656 C 60.261719 59.757812 60.378906 59.53125 60.488281 59.289062 C 60.597656 59.050781 60.726562 58.8125 60.835938 58.554688 C 61.066406 58.042969 61.289062 57.5 61.511719 56.933594 C 61.730469 56.367188 61.941406 55.777344 62.140625 55.167969 C 62.242188 54.867188 62.339844 54.558594 62.433594 54.25 C 62.53125 53.945312 62.617188 53.628906 62.703125 53.316406 C 62.882812 52.695312 63.039062 52.0625 63.1875 51.441406 C 63.328125 50.816406 63.46875 50.199219 63.585938 49.601562 C 63.707031 49 63.8125 48.417969 63.910156 47.867188 C 63.996094 47.308594 64.085938 46.785156 64.15625 46.296875 C 64.300781 45.324219 64.402344 44.507812 64.472656 43.933594 C 64.535156 43.355469 64.574219 43.027344 64.574219 43.027344 C 64.574219 43.027344 64.632812 43.355469 64.6875 43.933594 C 64.714844 44.226562 64.742188 44.578125 64.757812 44.984375 C 64.773438 45.386719 64.789062 45.847656 64.78125 46.347656 Z M 32.023438 11.925781 C 31.832031 12.296875 31.578125 12.832031 31.332031 13.488281 C 31.082031 14.140625 30.839844 14.910156 30.664062 15.75 C 30.617188 15.960938 30.582031 16.175781 30.539062 16.390625 C 30.511719 16.609375 30.46875 16.828125 30.449219 17.054688 C 30.4375 17.164062 30.421875 17.277344 30.410156 17.386719 L 30.386719 17.726562 C 30.363281 17.953125 30.359375 18.179688 30.351562 18.40625 C 30.339844 18.636719 30.351562 18.863281 30.351562 19.089844 C 30.359375 19.316406 30.367188 19.542969 30.378906 19.769531 C 30.398438 19.992188 30.417969 20.214844 30.4375 20.433594 C 30.464844 20.65625 30.492188 20.871094 30.519531 21.085938 C 30.554688 21.296875 30.589844 21.507812 30.621094 21.714844 C 30.65625 21.917969 30.707031 22.117188 30.742188 22.3125 C 30.777344 22.511719 30.832031 22.695312 30.871094 22.882812 C 30.917969 23.066406 30.957031 23.246094 31.007812 23.414062 C 31.101562 23.75 31.175781 24.066406 31.269531 24.339844 C 31.355469 24.617188 31.417969 24.863281 31.492188 25.058594 C 31.621094 25.457031 31.6875 25.691406 31.6875 25.691406 C 31.6875 25.691406 31.539062 25.503906 31.296875 25.152344 C 31.167969 24.980469 31.035156 24.761719 30.886719 24.507812 C 30.726562 24.253906 30.574219 23.957031 30.414062 23.628906 C 30.328125 23.46875 30.257812 23.289062 30.179688 23.109375 C 30.101562 22.925781 30.019531 22.738281 29.953125 22.539062 C 29.882812 22.339844 29.8125 22.136719 29.746094 21.921875 C 29.683594 21.710938 29.628906 21.492188 29.566406 21.265625 C 29.515625 21.042969 29.472656 20.8125 29.425781 20.578125 C 29.386719 20.339844 29.355469 20.101562 29.324219 19.859375 C 29.304688 19.617188 29.277344 19.371094 29.269531 19.125 C 29.265625 18.878906 29.25 18.628906 29.261719 18.378906 C 29.277344 17.882812 29.316406 17.386719 29.402344 16.90625 C 29.476562 16.421875 29.589844 15.953125 29.730469 15.507812 C 29.863281 15.0625 30.035156 14.648438 30.207031 14.261719 C 30.386719 13.875 30.574219 13.519531 30.769531 13.210938 C 30.960938 12.894531 31.160156 12.621094 31.34375 12.386719 C 31.523438 12.148438 31.699219 11.957031 31.847656 11.800781 C 31.992188 11.644531 32.121094 11.535156 32.203125 11.460938 C 32.289062 11.382812 32.339844 11.347656 32.339844 11.347656 C 32.339844 11.347656 32.214844 11.554688 32.023438 11.925781 Z M 63.230469 40.21875 C 62.429688 41.214844 61.191406 41.171875 60.195312 40.199219 C 58.03125 38.089844 56.59375 32.824219 56.535156 29.847656 C 56.492188 27.777344 56.136719 20.945312 57.820312 18.003906 C 54.925781 19.980469 51.839844 22.820312 51.753906 26.351562 C 51.894531 20.625 46.625 19.738281 42.78125 17.210938 C 36.765625 13.25 38.601562 5.257812 41.992188 0 C 36.839844 1.445312 32.867188 5.988281 30.109375 10.316406 C 26.675781 15.695312 27.117188 21.433594 29.449219 27.179688 C 27.023438 21.195312 18.234375 16.230469 11.898438 18.703125 C 15.070312 17.464844 17.855469 21.269531 19.195312 23.429688 C 21.03125 26.382812 22.78125 30.65625 21.46875 34.101562 C 20.269531 37.253906 16.984375 39.273438 14.78125 41.699219 C 9.953125 47.011719 9.878906 55.050781 13.578125 61 C 14.640625 62.707031 16.046875 64.429688 17.558594 65.765625 C 19.476562 67.460938 21.679688 69.105469 23.921875 70.347656 C 27.75 72.464844 31.972656 73.570312 36.226562 73.777344 C 28.074219 72.851562 20.164062 66.789062 17.554688 59.152344 C 16.121094 54.957031 17.691406 50.378906 20.414062 47.019531 C 22.683594 44.21875 25.214844 40.976562 25.074219 37.117188 C 25.066406 36.992188 25.058594 36.878906 25.054688 36.769531 C 25.066406 36.886719 25.070312 37 25.074219 37.117188 C 25.308594 40.246094 27.144531 48.578125 31.671875 44.585938 C 34.585938 42.015625 34.28125 37.449219 36.285156 34.308594 C 37.097656 33.035156 38.164062 32.164062 39.519531 31.496094 C 40.285156 31.121094 43.914062 30.515625 44.25 29.957031 C 42.675781 32.574219 40.800781 36.039062 43.777344 38.457031 C 46.039062 40.289062 49.042969 40.527344 51.4375 42.070312 C 53.691406 43.515625 55.5625 45.761719 57.023438 47.980469 C 57.773438 49.117188 58.324219 50.261719 58.699219 51.40625 C 61.960938 61.347656 51.929688 71.152344 42.390625 73.4375 C 42.257812 73.46875 42.121094 73.5 41.988281 73.527344 C 54.4375 71.820312 65.722656 62.742188 66.464844 49.371094 C 66.832031 42.726562 66.34375 35.414062 64.039062 29.101562 C 65.058594 32.148438 65.222656 37.734375 63.230469 40.21875 " fill-opacity="1" fill-rule="nonzero"/></g><path fill="#f7922d" d="M 64.039062 29.101562 C 64.007812 29 63.96875 28.898438 63.933594 28.800781 C 63.972656 28.902344 64.003906 29.003906 64.039062 29.101562 " fill-opacity="1" fill-rule="nonzero"/><path fill="#f3652f" d="M 25.074219 37.117188 C 25.070312 37 25.066406 36.886719 25.054688 36.769531 C 25.058594 36.878906 25.066406 36.992188 25.074219 37.117188 " fill-opacity="1" fill-rule="nonzero"/><path fill="#f3652f" d="M 25.492188 64.75 C 24.613281 62.171875 25.578125 59.355469 27.253906 57.289062 C 28.648438 55.566406 30.203125 53.574219 30.117188 51.199219 C 30.117188 51.128906 30.113281 51.058594 30.105469 50.988281 C 30.113281 51.058594 30.117188 51.128906 30.117188 51.199219 C 30.261719 53.125 31.390625 58.246094 34.175781 55.792969 C 35.96875 54.210938 35.777344 51.40625 37.011719 49.476562 C 37.507812 48.691406 38.167969 48.15625 39 47.746094 C 39.46875 47.515625 41.703125 47.144531 41.90625 46.796875 C 40.941406 48.410156 39.789062 50.539062 41.617188 52.023438 C 43.007812 53.152344 44.855469 53.296875 46.328125 54.246094 C 47.714844 55.136719 48.863281 56.515625 49.761719 57.878906 C 50.222656 58.578125 50.5625 59.285156 50.792969 59.988281 C 52.796875 66.101562 46.632812 72.128906 40.765625 73.53125 C 34.636719 75 27.503906 70.636719 25.492188 64.75 Z M 58.699219 51.40625 C 58.324219 50.261719 57.773438 49.117188 57.023438 47.980469 C 55.5625 45.761719 53.691406 43.515625 51.4375 42.070312 C 49.042969 40.527344 46.039062 40.289062 43.777344 38.457031 C 40.800781 36.039062 42.675781 32.574219 44.25 29.957031 C 43.914062 30.515625 40.285156 31.121094 39.519531 31.496094 C 38.164062 32.164062 37.097656 33.035156 36.285156 34.308594 C 34.28125 37.449219 34.585938 42.015625 31.671875 44.585938 C 27.144531 48.578125 25.308594 40.246094 25.074219 37.117188 C 25.214844 40.976562 22.683594 44.21875 20.414062 47.019531 C 17.691406 50.378906 16.121094 54.957031 17.554688 59.152344 C 20.164062 66.789062 28.074219 72.851562 36.226562 73.777344 C 38.15625 73.996094 40.097656 73.929688 41.988281 73.527344 C 42.121094 73.5 42.257812 73.46875 42.390625 73.4375 C 51.929688 71.152344 61.960938 61.347656 58.699219 51.40625 " fill-opacity="1" fill-rule="nonzero"/><path stroke-linecap="round" transform="matrix(0.00437623, 0, 0, -0.00435464, -7.647727, 83.169302)" fill="none" stroke-linejoin="round" d="M 8626.867221 7390.049704 C 8628.652432 7373.903141 8629.545037 7357.756578 8629.545037 7341.610015 " stroke="#f03d32" stroke-width="1.2" stroke-opacity="1" stroke-miterlimit="4"/><path fill="#f03d32" d="M 50.792969 59.988281 C 50.5625 59.285156 50.222656 58.578125 49.761719 57.878906 C 48.863281 56.515625 47.714844 55.136719 46.328125 54.246094 C 44.855469 53.296875 43.007812 53.152344 41.617188 52.023438 C 39.789062 50.539062 40.941406 48.410156 41.90625 46.796875 C 41.703125 47.144531 39.46875 47.515625 39 47.746094 C 38.167969 48.15625 37.507812 48.691406 37.011719 49.476562 C 35.777344 51.40625 35.96875 54.210938 34.175781 55.792969 C 31.390625 58.246094 30.261719 53.125 30.117188 51.199219 C 30.203125 53.574219 28.648438 55.566406 27.253906 57.289062 C 25.578125 59.355469 24.613281 62.171875 25.492188 64.75 C 27.503906 70.636719 34.636719 75 40.765625 73.53125 C 46.632812 72.128906 52.796875 66.101562 50.792969 59.988281 " fill-opacity="1" fill-rule="nonzero"/><path fill="#f8a52c" d="M 31.847656 11.804688 C 31.699219 11.957031 31.523438 12.148438 31.34375 12.386719 C 31.160156 12.621094 30.960938 12.894531 30.769531 13.210938 C 30.574219 13.523438 30.386719 13.875 30.203125 14.261719 C 30.035156 14.648438 29.863281 15.0625 29.730469 15.507812 C 29.589844 15.953125 29.476562 16.421875 29.402344 16.90625 C 29.316406 17.386719 29.277344 17.882812 29.261719 18.378906 C 29.25 18.628906 29.265625 18.878906 29.269531 19.125 C 29.277344 19.371094 29.304688 19.617188 29.324219 19.859375 C 29.355469 20.101562 29.386719 20.339844 29.425781 20.578125 C 29.472656 20.8125 29.515625 21.042969 29.566406 21.265625 C 29.628906 21.492188 29.683594 21.710938 29.746094 21.921875 C 29.8125 22.136719 29.882812 22.339844 29.953125 22.539062 C 30.019531 22.738281 30.101562 22.925781 30.179688 23.109375 C 30.257812 23.289062 30.328125 23.46875 30.414062 23.628906 C 30.574219 23.957031 30.726562 24.257812 30.886719 24.507812 C 31.035156 24.761719 31.167969 24.984375 31.296875 25.152344 C 31.539062 25.503906 31.6875 25.691406 31.6875 25.691406 C 31.6875 25.691406 31.621094 25.457031 31.492188 25.058594 C 31.417969 24.863281 31.355469 24.617188 31.269531 24.34375 C 31.175781 24.066406 31.101562 23.75 31.007812 23.414062 C 30.957031 23.246094 30.917969 23.066406 30.871094 22.882812 C 30.832031 22.699219 30.777344 22.511719 30.742188 22.3125 C 30.707031 22.117188 30.65625 21.917969 30.621094 21.714844 C 30.589844 21.507812 30.550781 21.296875 30.519531 21.085938 C 30.492188 20.871094 30.464844 20.65625 30.433594 20.433594 C 30.417969 20.214844 30.398438 19.992188 30.378906 19.769531 C 30.367188 19.542969 30.359375 19.316406 30.351562 19.089844 C 30.351562 18.863281 30.339844 18.636719 30.351562 18.40625 C 30.359375 18.179688 30.363281 17.953125 30.386719 17.726562 L 30.410156 17.386719 C 30.421875 17.277344 30.4375 17.164062 30.449219 17.054688 C 30.46875 16.828125 30.511719 16.609375 30.539062 16.390625 C 30.582031 16.175781 30.617188 15.960938 30.664062 15.753906 C 30.839844 14.910156 31.082031 14.140625 31.332031 13.488281 C 31.578125 12.832031 31.832031 12.296875 32.023438 11.925781 C 32.214844 11.558594 32.339844 11.347656 32.339844 11.347656 C 32.339844 11.347656 32.289062 11.382812 32.203125 11.460938 C 32.121094 11.535156 31.992188 11.644531 31.847656 11.804688 " fill-opacity="1" fill-rule="nonzero"/><path fill="#f8a52c" d="M 64.6875 43.933594 C 64.632812 43.355469 64.574219 43.027344 64.574219 43.027344 C 64.574219 43.027344 64.535156 43.355469 64.472656 43.933594 C 64.402344 44.507812 64.300781 45.324219 64.15625 46.296875 C 64.085938 46.785156 63.996094 47.308594 63.910156 47.867188 C 63.8125 48.417969 63.703125 49 63.585938 49.601562 C 63.46875 50.199219 63.328125 50.816406 63.1875 51.441406 C 63.039062 52.0625 62.882812 52.695312 62.703125 53.316406 C 62.617188 53.628906 62.53125 53.945312 62.433594 54.25 C 62.339844 54.5625 62.242188 54.867188 62.140625 55.167969 C 61.941406 55.777344 61.730469 56.367188 61.511719 56.933594 C 61.285156 57.5 61.066406 58.042969 60.835938 58.554688 C 60.726562 58.8125 60.597656 59.050781 60.488281 59.289062 C 60.378906 59.53125 60.261719 59.757812 60.148438 59.972656 C 59.925781 60.410156 59.703125 60.796875 59.511719 61.148438 C 59.304688 61.496094 59.125 61.796875 58.976562 62.042969 C 58.660156 62.523438 58.488281 62.8125 58.488281 62.8125 C 58.488281 62.8125 58.734375 62.585938 59.148438 62.175781 C 59.347656 61.960938 59.589844 61.699219 59.855469 61.386719 C 60.105469 61.070312 60.40625 60.714844 60.683594 60.292969 C 60.980469 59.886719 61.273438 59.425781 61.558594 58.921875 C 61.847656 58.421875 62.136719 57.882812 62.402344 57.3125 C 62.664062 56.738281 62.917969 56.136719 63.140625 55.515625 C 63.257812 55.203125 63.371094 54.890625 63.464844 54.570312 C 63.570312 54.253906 63.664062 53.929688 63.757812 53.609375 C 63.9375 52.960938 64.089844 52.308594 64.222656 51.664062 C 64.347656 51.015625 64.460938 50.378906 64.539062 49.757812 C 64.625 49.136719 64.671875 48.53125 64.714844 47.960938 C 64.757812 47.386719 64.777344 46.847656 64.777344 46.347656 C 64.789062 45.847656 64.773438 45.386719 64.757812 44.984375 C 64.742188 44.578125 64.714844 44.226562 64.6875 43.933594 " fill-opacity="1" fill-rule="nonzero"/></svg>